<svg width="14" height="14" viewBox="0 0 14 14" fill="none" xmlns="http://www.w3.org/2000/svg">
<path d="M11.4002 12H13.0002V13.3334H9.00016V9.33337H10.3335V11.1534C11.5535 10.1734 12.3335 8.68003 12.3335 7.00003C12.3335 4.2867 10.2935 2.04003 7.66683 1.71337V0.366699C11.0335 0.700033 13.6668 3.54003 13.6668 7.00003C13.6668 8.99337 12.7868 10.78 11.4002 12ZM1.66683 7.00003C1.66683 5.32003 2.44683 3.82003 3.66683 2.8467V4.6667H5.00016V0.666699H1.00016V2.00003H2.60016C1.2135 3.22003 0.333496 5.0067 0.333496 7.00003C0.333496 10.46 2.96683 13.3 6.3335 13.6334V12.2867C3.70683 11.96 1.66683 9.71337 1.66683 7.00003ZM9.82683 4.4067L6.0535 8.18003L4.16683 6.29337L3.22683 7.23337L6.0535 10.06L10.7668 5.3467L9.82683 4.4067Z" fill="#828282"/>
</svg>
