<svg width="14" height="14" viewBox="0 0 14 14" fill="none" xmlns="http://www.w3.org/2000/svg">
<path d="M13.6663 2.79995L10.5997 0.199951L9.73301 1.19995L12.7997 3.79995L13.6663 2.79995ZM4.26634 1.26662L3.39967 0.266618L0.333008 2.79995L1.19967 3.79995L4.26634 1.26662ZM7.33301 4.33328H6.33301V8.33328L9.46634 10.2666L9.99967 9.46662L7.33301 7.86662V4.33328ZM6.99967 1.66662C3.66634 1.66662 0.999674 4.33328 0.999674 7.66662C0.999674 11 3.66634 13.6666 6.99967 13.6666C10.333 13.6666 12.9997 11 12.9997 7.66662C12.9997 4.33328 10.333 1.66662 6.99967 1.66662ZM6.99967 12.3333C4.39967 12.3333 2.33301 10.2666 2.33301 7.66662C2.33301 5.06662 4.39967 2.99995 6.99967 2.99995C9.59968 2.99995 11.6663 5.06662 11.6663 7.66662C11.6663 10.2666 9.59968 12.3333 6.99967 12.3333Z" fill="white"/>
</svg>
