<svg width="16" height="16" viewBox="0 0 16 16" fill="none" xmlns="http://www.w3.org/2000/svg">
<g clip-path="url(#clip0_1_37819)">
<path d="M8.00016 2.66659C9.28683 2.66659 11.3335 3.59992 11.3335 6.09992C11.3335 7.53992 10.1868 9.21325 8.00016 10.9799C5.8135 9.21325 4.66683 7.53325 4.66683 6.09992C4.66683 3.59992 6.7135 2.66659 8.00016 2.66659ZM8.00016 1.33325C5.82016 1.33325 3.3335 2.97325 3.3335 6.09992C3.3335 8.17992 4.88683 10.3733 8.00016 12.6666C11.1135 10.3733 12.6668 8.17992 12.6668 6.09992C12.6668 2.97325 10.1802 1.33325 8.00016 1.33325Z" fill="#828282"/>
<path d="M8.00016 4.66675C7.26683 4.66675 6.66683 5.26675 6.66683 6.00008C6.66683 6.73341 7.26683 7.33341 8.00016 7.33341C8.35379 7.33341 8.69292 7.19294 8.94297 6.94289C9.19302 6.69284 9.3335 6.3537 9.3335 6.00008C9.3335 5.64646 9.19302 5.30732 8.94297 5.05727C8.69292 4.80722 8.35379 4.66675 8.00016 4.66675ZM3.3335 13.3334H12.6668V14.6667H3.3335V13.3334Z" fill="#828282"/>
</g>
<defs>
<clipPath id="clip0_1_37819">
<rect width="16" height="16" fill="white"/>
</clipPath>
</defs>
</svg>
