<svg width="215" height="60" viewBox="0 0 215 60" fill="none" xmlns="http://www.w3.org/2000/svg">
<path d="M93.6097 22.4651V25.026H82.9326V11.2364H93.3537V13.7973H86.1042V16.7917H92.5066V19.2738H86.1042V22.4651H93.6097Z" fill="white"/>
<path d="M95.1535 18.2494H100.728V20.7119H95.1535V18.2494Z" fill="white"/>
<path d="M110.039 25.2624C108.634 25.2624 107.36 24.9604 106.218 24.3563C105.088 23.739 104.195 22.8919 103.539 21.815C102.895 20.725 102.573 19.497 102.573 18.1312C102.573 16.7654 102.895 15.544 103.539 14.4671C104.195 13.3771 105.088 12.53 106.218 11.9259C107.36 11.3086 108.641 11 110.059 11C111.254 11 112.331 11.2101 113.29 11.6304C114.262 12.0506 115.076 12.6548 115.733 13.4427L113.684 15.3339C112.751 14.257 111.596 13.7185 110.217 13.7185C109.363 13.7185 108.601 13.909 107.932 14.2898C107.262 14.6575 106.736 15.1763 106.356 15.8461C105.988 16.5159 105.804 17.2776 105.804 18.1312C105.804 18.9849 105.988 19.7466 106.356 20.4164C106.736 21.0861 107.262 21.6115 107.932 21.9923C108.601 22.36 109.363 22.5439 110.217 22.5439C111.596 22.5439 112.751 21.9989 113.684 20.9088L115.733 22.8C115.076 23.6011 114.262 24.2118 113.29 24.6321C112.318 25.0523 111.235 25.2624 110.039 25.2624Z" fill="white"/>
<path d="M122.349 25.1836C121.232 25.1836 120.228 24.9538 119.335 24.4942C118.455 24.0214 117.765 23.3713 117.266 22.5439C116.767 21.7165 116.517 20.7775 116.517 19.7269C116.517 18.6762 116.767 17.7372 117.266 16.9098C117.765 16.0825 118.455 15.439 119.335 14.9793C120.228 14.5065 121.232 14.2701 122.349 14.2701C123.465 14.2701 124.463 14.5065 125.343 14.9793C126.223 15.439 126.912 16.0825 127.411 16.9098C127.91 17.7372 128.16 18.6762 128.16 19.7269C128.16 20.7775 127.91 21.7165 127.411 22.5439C126.912 23.3713 126.223 24.0214 125.343 24.4942C124.463 24.9538 123.465 25.1836 122.349 25.1836ZM122.349 22.6621C123.137 22.6621 123.78 22.3994 124.279 21.8741C124.791 21.3357 125.047 20.6199 125.047 19.7269C125.047 18.8338 124.791 18.1247 124.279 17.5993C123.78 17.0609 123.137 16.7917 122.349 16.7917C121.561 16.7917 120.91 17.0609 120.398 17.5993C119.886 18.1247 119.63 18.8338 119.63 19.7269C119.63 20.6199 119.886 21.3357 120.398 21.8741C120.91 22.3994 121.561 22.6621 122.349 22.6621Z" fill="white"/>
<path d="M143.787 14.2701C145.113 14.2701 146.164 14.6641 146.939 15.4521C147.727 16.2269 148.121 17.3958 148.121 18.9586V25.026H145.048V19.4314C145.048 18.5909 144.87 17.9671 144.516 17.5599C144.174 17.1397 143.682 16.9295 143.038 16.9295C142.316 16.9295 141.745 17.1659 141.325 17.6387C140.904 18.0984 140.694 18.7879 140.694 19.7072V25.026H137.621V19.4314C137.621 17.7635 136.951 16.9295 135.612 16.9295C134.902 16.9295 134.338 17.1659 133.918 17.6387C133.497 18.0984 133.287 18.7879 133.287 19.7072V25.026H130.214V14.4277H133.149V15.6491C133.543 15.2026 134.023 14.8611 134.587 14.6247C135.165 14.3883 135.796 14.2701 136.478 14.2701C137.227 14.2701 137.903 14.4211 138.508 14.7232C139.112 15.0121 139.598 15.439 139.965 16.0037C140.399 15.4521 140.944 15.0253 141.6 14.7232C142.27 14.4211 142.999 14.2701 143.787 14.2701Z" fill="white"/>
<path d="M164.448 14.2701C165.775 14.2701 166.825 14.6641 167.6 15.4521C168.388 16.2269 168.782 17.3958 168.782 18.9586V25.026H165.709V19.4314C165.709 18.5909 165.532 17.9671 165.177 17.5599C164.836 17.1397 164.343 16.9295 163.7 16.9295C162.977 16.9295 162.406 17.1659 161.986 17.6387C161.566 18.0984 161.356 18.7879 161.356 19.7072V25.026H158.282V19.4314C158.282 17.7635 157.613 16.9295 156.273 16.9295C155.564 16.9295 154.999 17.1659 154.579 17.6387C154.159 18.0984 153.949 18.7879 153.949 19.7072V25.026H150.875V14.4277H153.811V15.6491C154.205 15.2026 154.684 14.8611 155.249 14.6247C155.827 14.3883 156.457 14.2701 157.14 14.2701C157.888 14.2701 158.565 14.4211 159.169 14.7232C159.773 15.0121 160.259 15.439 160.627 16.0037C161.06 15.4521 161.605 15.0253 162.262 14.7232C162.931 14.4211 163.66 14.2701 164.448 14.2701Z" fill="white"/>
<path d="M182.034 19.7663C182.034 19.8057 182.014 20.0815 181.975 20.5937H173.957C174.102 21.2503 174.443 21.7691 174.981 22.1499C175.52 22.5308 176.19 22.7212 176.991 22.7212C177.542 22.7212 178.028 22.6424 178.449 22.4848C178.882 22.3141 179.282 22.0514 179.65 21.6968L181.285 23.4698C180.287 24.6124 178.829 25.1836 176.912 25.1836C175.717 25.1836 174.66 24.9538 173.74 24.4942C172.821 24.0214 172.112 23.3713 171.613 22.5439C171.114 21.7165 170.864 20.7775 170.864 19.7269C170.864 18.6894 171.107 17.7569 171.593 16.9295C172.092 16.089 172.769 15.439 173.622 14.9793C174.489 14.5065 175.454 14.2701 176.518 14.2701C177.555 14.2701 178.495 14.4934 179.335 14.9399C180.176 15.3864 180.832 16.0299 181.305 16.8704C181.791 17.6978 182.034 18.6631 182.034 19.7663ZM176.538 16.5947C175.842 16.5947 175.257 16.7917 174.784 17.1856C174.312 17.5796 174.023 18.1181 173.918 18.801H179.138C179.033 18.1312 178.744 17.5993 178.271 17.2053C177.798 16.7982 177.221 16.5947 176.538 16.5947Z" fill="white"/>
<path d="M187.015 15.8264C187.383 15.3142 187.875 14.9268 188.493 14.6641C189.123 14.4014 189.845 14.2701 190.659 14.2701V17.1068C190.318 17.0806 190.088 17.0674 189.97 17.0674C189.09 17.0674 188.401 17.317 187.902 17.816C187.402 18.3019 187.153 19.0374 187.153 20.0224V25.026H184.08V14.4277H187.015V15.8264Z" fill="white"/>
<path d="M197.512 25.1836C196.383 25.1836 195.365 24.9538 194.459 24.4942C193.566 24.0214 192.863 23.3713 192.351 22.5439C191.852 21.7165 191.603 20.7775 191.603 19.7269C191.603 18.6762 191.852 17.7372 192.351 16.9098C192.863 16.0825 193.566 15.439 194.459 14.9793C195.365 14.5065 196.383 14.2701 197.512 14.2701C198.629 14.2701 199.601 14.5065 200.428 14.9793C201.268 15.439 201.879 16.1022 202.26 16.9689L199.876 18.2494C199.325 17.2776 198.53 16.7917 197.493 16.7917C196.692 16.7917 196.028 17.0543 195.503 17.5796C194.978 18.105 194.715 18.8207 194.715 19.7269C194.715 20.6331 194.978 21.3488 195.503 21.8741C196.028 22.3994 196.692 22.6621 197.493 22.6621C198.543 22.6621 199.338 22.1762 199.876 21.2043L202.26 22.5045C201.879 23.345 201.268 24.0017 200.428 24.4745C199.601 24.9472 198.629 25.1836 197.512 25.1836Z" fill="white"/>
<path d="M214.276 19.7663C214.276 19.8057 214.257 20.0815 214.217 20.5937H206.2C206.344 21.2503 206.686 21.7691 207.224 22.1499C207.762 22.5308 208.432 22.7212 209.233 22.7212C209.785 22.7212 210.271 22.6424 210.691 22.4848C211.124 22.3141 211.525 22.0514 211.893 21.6968L213.528 23.4698C212.53 24.6124 211.072 25.1836 209.155 25.1836C207.959 25.1836 206.902 24.9538 205.983 24.4942C205.064 24.0214 204.354 23.3713 203.855 22.5439C203.356 21.7165 203.107 20.7775 203.107 19.7269C203.107 18.6894 203.35 17.7569 203.836 16.9295C204.335 16.089 205.011 15.439 205.865 14.9793C206.731 14.5065 207.697 14.2701 208.761 14.2701C209.798 14.2701 210.737 14.4934 211.578 14.9399C212.418 15.3864 213.075 16.0299 213.548 16.8704C214.033 17.6978 214.276 18.6631 214.276 19.7663ZM208.78 16.5947C208.084 16.5947 207.5 16.7917 207.027 17.1856C206.554 17.5796 206.265 18.1181 206.16 18.801H211.381C211.275 18.1312 210.987 17.5993 210.514 17.2053C210.041 16.7982 209.463 16.5947 208.78 16.5947Z" fill="white"/>
<path d="M96.749 46.5724V37.9539H100.615C101.608 37.9539 102.372 38.155 102.905 38.5572C103.439 38.9512 103.705 39.4929 103.705 40.1824C103.705 40.6502 103.599 41.0442 103.385 41.3644C103.18 41.6845 102.901 41.9307 102.548 42.1031C102.195 42.2755 101.813 42.3616 101.403 42.3616L101.625 41.9923C102.117 41.9923 102.552 42.0785 102.93 42.2508C103.307 42.4232 103.607 42.6777 103.829 43.0142C104.05 43.3425 104.161 43.7529 104.161 44.2454C104.161 44.9841 103.882 45.5587 103.324 45.9691C102.774 46.3713 101.953 46.5724 100.861 46.5724H96.749ZM97.9802 45.5751H100.812C101.493 45.5751 102.015 45.4602 102.376 45.2304C102.737 45.0006 102.917 44.6394 102.917 44.1469C102.917 43.6462 102.737 43.281 102.376 43.0511C102.015 42.8213 101.493 42.7064 100.812 42.7064H97.8694V41.7091H100.504C101.128 41.7091 101.612 41.5942 101.957 41.3644C102.302 41.1345 102.474 40.7898 102.474 40.3301C102.474 39.8705 102.302 39.5257 101.957 39.2959C101.612 39.0661 101.128 38.9512 100.504 38.9512H97.9802V45.5751Z" fill="white"/>
<path d="M106.178 49.0348C105.866 49.0348 105.563 48.9815 105.267 48.8748C104.972 48.7763 104.717 48.6285 104.504 48.4315L105.008 47.5451C105.173 47.701 105.353 47.82 105.55 47.9021C105.747 47.9842 105.957 48.0252 106.178 48.0252C106.465 48.0252 106.703 47.9514 106.892 47.8036C107.081 47.6559 107.258 47.3932 107.422 47.0156L107.828 46.1169L107.951 45.9691L110.512 40.047H111.669L108.505 47.225C108.316 47.6846 108.103 48.0458 107.865 48.3084C107.635 48.5711 107.381 48.7558 107.102 48.8625C106.822 48.9774 106.515 49.0348 106.178 49.0348ZM107.729 46.7817L104.75 40.047H105.981L108.517 45.8583L107.729 46.7817Z" fill="white"/>
<path d="M119.539 46.6463C118.981 46.6463 118.476 46.5232 118.024 46.2769C117.581 46.0225 117.228 45.649 116.965 45.1565C116.711 44.664 116.584 44.0484 116.584 43.3097C116.584 42.5709 116.715 41.9553 116.978 41.4629C117.249 40.9704 117.606 40.601 118.049 40.3548C118.5 40.1085 118.997 39.9854 119.539 39.9854C120.179 39.9854 120.745 40.1249 121.238 40.404C121.73 40.6831 122.12 41.073 122.407 41.5737C122.695 42.0661 122.838 42.6448 122.838 43.3097C122.838 43.9745 122.695 44.5573 122.407 45.058C122.12 45.5587 121.73 45.9486 121.238 46.2277C120.745 46.5067 120.179 46.6463 119.539 46.6463ZM116.079 46.5724V37.4368H117.261V41.783L117.138 43.2974L117.212 44.8118V46.5724H116.079ZM119.44 45.6121C119.859 45.6121 120.232 45.5177 120.561 45.3289C120.897 45.1401 121.16 44.8733 121.349 44.5286C121.546 44.1756 121.644 43.7693 121.644 43.3097C121.644 42.8418 121.546 42.4396 121.349 42.1031C121.16 41.7583 120.897 41.4916 120.561 41.3028C120.232 41.114 119.859 41.0196 119.44 41.0196C119.03 41.0196 118.656 41.114 118.32 41.3028C117.991 41.4916 117.729 41.7583 117.532 42.1031C117.343 42.4396 117.249 42.8418 117.249 43.3097C117.249 43.7693 117.343 44.1756 117.532 44.5286C117.729 44.8733 117.991 45.1401 118.32 45.3289C118.656 45.5177 119.03 45.6121 119.44 45.6121Z" fill="white"/>
<path d="M127.266 46.6463C126.61 46.6463 126.027 46.5026 125.518 46.2154C125.009 45.9281 124.607 45.5341 124.311 45.0334C124.016 44.5245 123.868 43.9499 123.868 43.3097C123.868 42.6612 124.016 42.0867 124.311 41.586C124.607 41.0853 125.009 40.6954 125.518 40.4163C126.027 40.129 126.61 39.9854 127.266 39.9854C127.915 39.9854 128.493 40.129 129.002 40.4163C129.519 40.6954 129.922 41.0853 130.209 41.586C130.504 42.0785 130.652 42.653 130.652 43.3097C130.652 43.9581 130.504 44.5327 130.209 45.0334C129.922 45.5341 129.519 45.9281 129.002 46.2154C128.493 46.5026 127.915 46.6463 127.266 46.6463ZM127.266 45.6121C127.685 45.6121 128.058 45.5177 128.387 45.3289C128.723 45.1401 128.986 44.8733 129.175 44.5286C129.363 44.1756 129.458 43.7693 129.458 43.3097C129.458 42.8418 129.363 42.4396 129.175 42.1031C128.986 41.7583 128.723 41.4916 128.387 41.3028C128.058 41.114 127.685 41.0196 127.266 41.0196C126.848 41.0196 126.474 41.114 126.146 41.3028C125.818 41.4916 125.555 41.7583 125.358 42.1031C125.161 42.4396 125.062 42.8418 125.062 43.3097C125.062 43.7693 125.161 44.1756 125.358 44.5286C125.555 44.8733 125.818 45.1401 126.146 45.3289C126.474 45.5177 126.848 45.6121 127.266 45.6121Z" fill="white"/>
<path d="M135.082 46.6463C134.425 46.6463 133.842 46.5026 133.333 46.2154C132.824 45.9281 132.422 45.5341 132.127 45.0334C131.831 44.5245 131.683 43.9499 131.683 43.3097C131.683 42.6612 131.831 42.0867 132.127 41.586C132.422 41.0853 132.824 40.6954 133.333 40.4163C133.842 40.129 134.425 39.9854 135.082 39.9854C135.73 39.9854 136.309 40.129 136.818 40.4163C137.335 40.6954 137.737 41.0853 138.024 41.586C138.32 42.0785 138.468 42.653 138.468 43.3097C138.468 43.9581 138.32 44.5327 138.024 45.0334C137.737 45.5341 137.335 45.9281 136.818 46.2154C136.309 46.5026 135.73 46.6463 135.082 46.6463ZM135.082 45.6121C135.5 45.6121 135.874 45.5177 136.202 45.3289C136.539 45.1401 136.801 44.8733 136.99 44.5286C137.179 44.1756 137.273 43.7693 137.273 43.3097C137.273 42.8418 137.179 42.4396 136.99 42.1031C136.801 41.7583 136.539 41.4916 136.202 41.3028C135.874 41.114 135.5 41.0196 135.082 41.0196C134.663 41.0196 134.29 41.114 133.961 41.3028C133.633 41.4916 133.37 41.7583 133.173 42.1031C132.976 42.4396 132.878 42.8418 132.878 43.3097C132.878 43.7693 132.976 44.1756 133.173 44.5286C133.37 44.8733 133.633 45.1401 133.961 45.3289C134.29 45.5177 134.663 45.6121 135.082 45.6121Z" fill="white"/>
<path d="M142.343 46.6463C141.686 46.6463 141.177 46.4698 140.816 46.1169C140.455 45.7639 140.275 45.2591 140.275 44.6025V38.6187H141.456V44.5532C141.456 44.9062 141.543 45.177 141.715 45.3658C141.896 45.5546 142.15 45.649 142.478 45.649C142.848 45.649 143.156 45.5464 143.402 45.3412L143.771 46.1907C143.591 46.3467 143.373 46.4616 143.119 46.5355C142.872 46.6093 142.614 46.6463 142.343 46.6463ZM139.166 41.0196V40.047H143.328V41.0196H139.166Z" fill="white"/>
<path d="M147.828 46.6463C147.163 46.6463 146.568 46.5026 146.043 46.2154C145.525 45.9281 145.119 45.5341 144.824 45.0334C144.528 44.5327 144.38 43.9581 144.38 43.3097C144.38 42.6612 144.528 42.0867 144.824 41.586C145.119 41.0853 145.525 40.6954 146.043 40.4163C146.568 40.129 147.163 39.9854 147.828 39.9854C148.419 39.9854 148.944 40.1044 149.404 40.3424C149.872 40.5723 150.233 40.917 150.487 41.3767L149.588 41.9553C149.375 41.6352 149.112 41.4013 148.801 41.2535C148.497 41.0976 148.168 41.0196 147.816 41.0196C147.389 41.0196 147.007 41.114 146.671 41.3028C146.334 41.4916 146.067 41.7583 145.87 42.1031C145.673 42.4396 145.575 42.8418 145.575 43.3097C145.575 43.7775 145.673 44.1838 145.87 44.5286C146.067 44.8733 146.334 45.1401 146.671 45.3289C147.007 45.5177 147.389 45.6121 147.816 45.6121C148.168 45.6121 148.497 45.5382 148.801 45.3904C149.112 45.2345 149.375 44.9964 149.588 44.6763L150.487 45.2427C150.233 45.6941 149.872 46.043 149.404 46.2892C148.944 46.5273 148.419 46.6463 147.828 46.6463Z" fill="white"/>
<path d="M156.068 46.5724V45.1934L156.007 44.9349V42.5833C156.007 42.0826 155.859 41.6968 155.563 41.4259C155.276 41.1468 154.841 41.0073 154.258 41.0073C153.873 41.0073 153.495 41.073 153.126 41.2043C152.756 41.3274 152.444 41.4957 152.19 41.7091L151.697 40.8226C152.034 40.5518 152.436 40.3465 152.904 40.207C153.38 40.0593 153.877 39.9854 154.394 39.9854C155.288 39.9854 155.978 40.2029 156.462 40.6379C156.947 41.073 157.189 41.7378 157.189 42.6325V46.5724H156.068ZM153.926 46.6463C153.442 46.6463 153.015 46.5642 152.645 46.4C152.284 46.2359 152.005 46.0102 151.808 45.7229C151.611 45.4274 151.513 45.0949 151.513 44.7256C151.513 44.3726 151.595 44.0525 151.759 43.7652C151.931 43.4779 152.206 43.2481 152.584 43.0757C152.97 42.9034 153.487 42.8172 154.135 42.8172H156.204V43.6667H154.184C153.594 43.6667 153.195 43.7652 152.99 43.9622C152.785 44.1592 152.682 44.3973 152.682 44.6763C152.682 44.9964 152.81 45.255 153.064 45.452C153.319 45.6408 153.671 45.7352 154.123 45.7352C154.566 45.7352 154.952 45.6367 155.28 45.4397C155.617 45.2427 155.859 44.9554 156.007 44.5778L156.241 45.3904C156.085 45.7762 155.81 46.084 155.416 46.3139C155.022 46.5355 154.525 46.6463 153.926 46.6463Z" fill="white"/>
<path d="M167.539 39.9854C168.064 39.9854 168.528 40.088 168.93 40.2932C169.332 40.4984 169.644 40.8103 169.866 41.2289C170.096 41.6475 170.211 42.177 170.211 42.8172V46.5724H169.029V42.9526C169.029 42.3206 168.881 41.8445 168.586 41.5244C168.29 41.2043 167.876 41.0442 167.342 41.0442C166.948 41.0442 166.603 41.1263 166.308 41.2905C166.012 41.4546 165.782 41.6968 165.618 42.0169C165.462 42.337 165.384 42.7351 165.384 43.2112V46.5724H164.202V42.9526C164.202 42.3206 164.055 41.8445 163.759 41.5244C163.472 41.2043 163.057 41.0442 162.516 41.0442C162.13 41.0442 161.789 41.1263 161.494 41.2905C161.198 41.4546 160.968 41.6968 160.804 42.0169C160.64 42.337 160.558 42.7351 160.558 43.2112V46.5724H159.376V40.047H160.509V41.783L160.324 41.3397C160.529 40.9129 160.845 40.5805 161.272 40.3424C161.699 40.1044 162.195 39.9854 162.762 39.9854C163.386 39.9854 163.923 40.1413 164.375 40.4533C164.826 40.757 165.122 41.2207 165.261 41.8445L164.781 41.6475C164.978 41.1468 165.323 40.7446 165.815 40.4409C166.308 40.1372 166.882 39.9854 167.539 39.9854Z" fill="white"/>
<path d="M175.845 46.6463C175.304 46.6463 174.807 46.5232 174.356 46.2769C173.912 46.0225 173.555 45.649 173.284 45.1565C173.022 44.664 172.89 44.0484 172.89 43.3097C172.89 42.5709 173.018 41.9553 173.272 41.4629C173.535 40.9704 173.888 40.601 174.331 40.3548C174.782 40.1085 175.287 39.9854 175.845 39.9854C176.486 39.9854 177.052 40.1249 177.544 40.404C178.037 40.6831 178.427 41.073 178.714 41.5737C179.001 42.0661 179.145 42.6448 179.145 43.3097C179.145 43.9745 179.001 44.5573 178.714 45.058C178.427 45.5587 178.037 45.9486 177.544 46.2277C177.052 46.5067 176.486 46.6463 175.845 46.6463ZM172.386 48.961V40.047H173.518V41.8076L173.444 43.322L173.568 44.8364V48.961H172.386ZM175.747 45.6121C176.165 45.6121 176.539 45.5177 176.867 45.3289C177.204 45.1401 177.466 44.8733 177.655 44.5286C177.852 44.1756 177.951 43.7693 177.951 43.3097C177.951 42.8418 177.852 42.4396 177.655 42.1031C177.466 41.7583 177.204 41.4916 176.867 41.3028C176.539 41.114 176.165 41.0196 175.747 41.0196C175.336 41.0196 174.963 41.114 174.626 41.3028C174.298 41.4916 174.035 41.7583 173.838 42.1031C173.65 42.4396 173.555 42.8418 173.555 43.3097C173.555 43.7693 173.65 44.1756 173.838 44.5286C174.035 44.8733 174.298 45.1401 174.626 45.3289C174.963 45.5177 175.336 45.6121 175.747 45.6121Z" fill="white"/>
<path d="M186.19 46.6709C185.583 46.6709 184.992 46.5765 184.417 46.3877C183.851 46.1989 183.387 45.9445 183.026 45.6244L183.592 44.6517C183.879 44.9226 184.253 45.1442 184.712 45.3166C185.172 45.4889 185.665 45.5751 186.19 45.5751C186.83 45.5751 187.327 45.4397 187.68 45.1688C188.041 44.8897 188.221 44.5163 188.221 44.0484C188.221 43.597 188.049 43.2358 187.704 42.9649C187.368 42.6859 186.83 42.5463 186.091 42.5463H185.402V41.6845L187.963 38.5326L188.135 39.025H183.42V37.9539H189.108V38.7911L186.559 41.9307L185.919 41.549H186.325C187.368 41.549 188.148 41.783 188.665 42.2508C189.19 42.7187 189.453 43.3138 189.453 44.0361C189.453 44.5204 189.334 44.9636 189.096 45.3658C188.858 45.768 188.496 46.0881 188.012 46.3262C187.536 46.556 186.929 46.6709 186.19 46.6709Z" fill="white"/>
<path d="M191.414 46.6463C191.184 46.6463 190.987 46.5683 190.823 46.4123C190.658 46.2482 190.576 46.043 190.576 45.7967C190.576 45.5505 190.658 45.3494 190.823 45.1934C190.987 45.0375 191.184 44.9595 191.414 44.9595C191.635 44.9595 191.824 45.0375 191.98 45.1934C192.144 45.3494 192.226 45.5505 192.226 45.7967C192.226 46.043 192.144 46.2482 191.98 46.4123C191.824 46.5683 191.635 46.6463 191.414 46.6463Z" fill="white"/>
<path d="M196.767 46.6709C196.094 46.6709 195.491 46.4985 194.958 46.1538C194.432 45.8091 194.014 45.3084 193.702 44.6517C193.398 43.9951 193.246 43.1989 193.246 42.2631C193.246 41.3274 193.398 40.5312 193.702 39.8746C194.014 39.2179 194.432 38.7172 194.958 38.3725C195.491 38.0278 196.094 37.8554 196.767 37.8554C197.432 37.8554 198.031 38.0278 198.565 38.3725C199.099 38.7172 199.517 39.2179 199.821 39.8746C200.125 40.5312 200.276 41.3274 200.276 42.2631C200.276 43.1989 200.125 43.9951 199.821 44.6517C199.517 45.3084 199.099 45.8091 198.565 46.1538C198.031 46.4985 197.432 46.6709 196.767 46.6709ZM196.767 45.5751C197.219 45.5751 197.613 45.452 197.949 45.2058C198.294 44.9595 198.561 44.5901 198.75 44.0977C198.947 43.6052 199.045 42.9937 199.045 42.2631C199.045 41.5326 198.947 40.9211 198.75 40.4286C198.561 39.9361 198.294 39.5668 197.949 39.3205C197.613 39.0743 197.219 38.9512 196.767 38.9512C196.316 38.9512 195.918 39.0743 195.573 39.3205C195.228 39.5668 194.958 39.9361 194.761 40.4286C194.572 40.9211 194.477 41.5326 194.477 42.2631C194.477 42.9937 194.572 43.6052 194.761 44.0977C194.958 44.5901 195.228 44.9595 195.573 45.2058C195.918 45.452 196.316 45.5751 196.767 45.5751Z" fill="white"/>
<g clip-path="url(#clip0_1_23881)">
<path d="M77.9361 59.6525H0.492487C0.246244 59.6525 0 59.4063 0 59.16C0 58.9138 0.246244 58.6675 0.492487 58.6675H77.9361C78.1824 58.6675 78.4286 58.9138 78.4286 59.16C78.4286 59.4063 78.2439 59.6525 77.9361 59.6525Z" fill="white"/>
<path d="M57.436 26.225C57.1897 25.9172 56.8819 25.7941 56.5126 25.7941H20.1301L19.0835 22.7776C18.8988 22.2851 18.4679 21.9773 17.9754 21.9773H8.18724C7.51007 21.9773 7.01758 22.5313 7.01758 23.147C7.01758 23.8241 7.57163 24.3166 8.18724 24.3166H17.1136L25.2396 46.6632L23.085 55.0355C23.0234 55.4049 23.085 55.7742 23.2697 56.082C23.5159 56.3898 23.8237 56.513 24.1931 56.513H26.9633C27.4558 58.3598 29.1795 59.7141 31.211 59.7141C33.2425 59.7141 34.9047 58.3598 35.4587 56.513H43.0923C43.5848 58.3598 45.3085 59.7141 47.34 59.7141C49.7409 59.7141 51.7108 57.7442 51.7108 55.3433C51.7108 52.9424 49.7409 50.9725 47.34 50.9725C45.3085 50.9725 43.6463 52.3268 43.0923 54.1737H35.4587C34.9662 52.3268 33.2425 50.9725 31.211 50.9725C29.1795 50.9725 27.5174 52.3268 26.9633 54.1737H25.7321L27.3942 47.8329H52.388C52.942 47.8329 53.4345 47.4635 53.5576 46.9095L57.6822 27.2715C57.7438 26.8406 57.6822 26.4712 57.436 26.225ZM47.34 53.3118C48.4481 53.3118 49.3715 54.2352 49.3715 55.3433C49.3715 56.4514 48.4481 57.3748 47.34 57.3748C46.2319 57.3748 45.3085 56.4514 45.3085 55.3433C45.3085 54.2352 46.2319 53.3118 47.34 53.3118ZM31.211 53.3118C32.3191 53.3118 33.2425 54.2352 33.2425 55.3433C33.2425 56.4514 32.3191 57.3748 31.211 57.3748C30.1645 57.3748 29.3026 56.5745 29.1795 55.528C29.1795 55.4664 29.1795 55.4049 29.1795 55.4049V55.2817C29.3026 54.1737 30.1645 53.3118 31.211 53.3118ZM42.4767 45.432L39.5217 37.9831H44.8775L47.8325 45.432H42.4767ZM34.5353 45.432L31.5804 37.9831H36.9362L39.8911 45.432H34.5353ZM24.5624 37.9831H28.9948L31.9497 45.432H27.2711L24.5624 37.9831ZM33.0578 28.1334L36.0128 35.5823H30.657L27.702 28.1334H33.0578ZM38.5368 35.5823L35.5818 28.1334H40.9376L43.8926 35.5823H38.5368ZM43.5232 28.1334H48.879L51.8339 35.5823H46.4781L43.5232 28.1334ZM53.8039 34.1048L51.403 28.1334H55.0351L53.8039 34.1048ZM25.1165 28.1334L28.0714 35.5823H23.7621L21.0535 28.1334H25.1165ZM51.403 45.432H50.3565L47.4015 37.9831H52.7573L52.8805 38.3525L51.403 45.432Z" fill="white"/>
<path d="M54.6665 12.8047C54.0509 12.9893 53.6815 13.605 53.8047 14.2821C54.5434 17.1755 54.4818 20.3151 53.62 23.1469C53.4353 23.7625 53.8047 24.4397 54.4203 24.6244C54.5434 24.6244 54.6665 24.6244 54.7896 24.6244C55.2821 24.6244 55.7746 24.3166 55.8977 23.7625C56.9443 20.4382 57.0058 16.9292 56.0824 13.605C55.9593 12.9893 55.3437 12.62 54.6665 12.8047Z" fill="white"/>
<path d="M42.4158 2.89335C45.7401 3.7552 48.695 5.72515 50.8496 8.37227C51.2806 8.86476 52.0193 8.98788 52.5118 8.55695C53.0043 8.12603 53.1274 7.3873 52.6965 6.89481C50.234 3.81676 46.7866 1.60057 42.9699 0.554036C36.6906 -1.04655 29.9189 0.80028 25.3634 5.41735C20.6848 10.1575 18.8995 17.3602 20.8695 23.7625C21.0542 24.255 21.4851 24.6244 21.9776 24.6244C22.1007 24.6244 22.2238 24.6244 22.3469 24.5628C22.9626 24.3781 23.3319 23.7009 23.1472 23.0853C21.4235 17.5448 22.9626 11.2656 27.0871 7.14105C31.027 3.07803 36.9369 1.47745 42.4158 2.89335Z" fill="white"/>
<path d="M57.1287 8.43386C56.7593 7.87981 56.0206 7.75669 55.4665 8.12605L37.306 20.3151L34.1664 12.3738C33.9202 11.7581 33.243 11.4503 32.6274 11.6966C32.0118 11.9428 31.704 12.62 31.9502 13.2356L35.6439 22.5313C35.767 22.8391 36.0748 23.1469 36.3826 23.2085C36.5057 23.27 36.6289 23.27 36.752 23.27C36.9982 23.27 37.2445 23.2085 37.4292 23.0854L56.8208 10.0344C57.3749 9.72663 57.498 8.9879 57.1287 8.43386Z" fill="white"/>
</g>
<defs>
<clipPath id="clip0_1_23881">
<rect width="78.4286" height="59.7141" fill="white"/>
</clipPath>
</defs>
</svg>
