<svg width="42.03" height="32" viewBox="0 0 43 32" fill="none" xmlns="http://www.w3.org/2000/svg">
<g clip-path="url(#clip0_1_16976)">
<path d="M41.7649 31.9668H0.263918C0.131959 31.9668 0 31.8348 0 31.7029C0 31.5709 0.131959 31.439 0.263918 31.439H41.7649C41.8969 31.439 42.0289 31.5709 42.0289 31.7029C42.0289 31.8348 41.9299 31.9668 41.7649 31.9668Z" fill="#3163E2"/>
<path d="M30.7793 14.0536C30.6473 13.8887 30.4824 13.8227 30.2845 13.8227H10.7875L10.2267 12.2062C10.1278 11.9423 9.89682 11.7773 9.63291 11.7773H4.38755C4.02466 11.7773 3.76074 12.0743 3.76074 12.4041C3.76074 12.767 4.05765 13.031 4.38755 13.031H9.17105L13.5257 25.0062L12.3711 29.4928C12.3381 29.6907 12.3711 29.8887 12.47 30.0536C12.602 30.2186 12.7669 30.2846 12.9649 30.2846H14.4494C14.7133 31.2743 15.637 32 16.7257 32C17.8144 32 18.7051 31.2743 19.002 30.2846H23.0927C23.3566 31.2743 24.2803 32 25.369 32C26.6556 32 27.7113 30.9444 27.7113 29.6578C27.7113 28.3712 26.6556 27.3155 25.369 27.3155C24.2803 27.3155 23.3896 28.0413 23.0927 29.031H19.002C18.7381 28.0413 17.8144 27.3155 16.7257 27.3155C15.637 27.3155 14.7463 28.0413 14.4494 29.031H13.7896L14.6803 25.633H28.0741C28.371 25.633 28.635 25.4351 28.7009 25.1382L30.9113 14.6145C30.9442 14.3835 30.9113 14.1856 30.7793 14.0536ZM25.369 28.5691C25.9628 28.5691 26.4576 29.0639 26.4576 29.6578C26.4576 30.2516 25.9628 30.7464 25.369 30.7464C24.7752 30.7464 24.2803 30.2516 24.2803 29.6578C24.2803 29.0639 24.7752 28.5691 25.369 28.5691ZM16.7257 28.5691C17.3195 28.5691 17.8143 29.0639 17.8143 29.6578C17.8143 30.2516 17.3195 30.7464 16.7257 30.7464C16.1649 30.7464 15.703 30.3176 15.637 29.7567C15.637 29.7237 15.637 29.6907 15.637 29.6907V29.6248C15.703 29.031 16.1649 28.5691 16.7257 28.5691ZM22.7628 24.3464L21.1793 20.3547H24.0494L25.6329 24.3464H22.7628ZM18.5071 24.3464L16.9236 20.3547H19.7937L21.3772 24.3464H18.5071ZM13.1628 20.3547H15.5381L17.1216 24.3464H14.6144L13.1628 20.3547ZM17.7154 15.0763L19.2989 19.0681H16.4288L14.8453 15.0763H17.7154ZM20.6515 19.0681L19.068 15.0763H21.9381L23.5216 19.0681H20.6515ZM23.3236 15.0763H26.1937L27.7772 19.0681H24.9071L23.3236 15.0763ZM28.8329 18.2763L27.5463 15.0763H29.4927L28.8329 18.2763ZM13.4597 15.0763L15.0432 19.0681H12.7339L11.2824 15.0763H13.4597ZM27.5463 24.3464H26.9855L25.402 20.3547H28.2721L28.3381 20.5526L27.5463 24.3464Z" fill="#3163E2"/>
<path d="M29.2954 6.86199C28.9655 6.96096 28.7675 7.29086 28.8335 7.65374C29.2294 9.20426 29.1964 10.8867 28.7345 12.4043C28.6356 12.7342 28.8335 13.097 29.1634 13.196C29.2294 13.196 29.2954 13.196 29.3614 13.196C29.6253 13.196 29.8892 13.0311 29.9552 12.7342C30.516 10.9527 30.549 9.0723 30.0541 7.29086C29.9882 6.96096 29.6583 6.76302 29.2954 6.86199Z" fill="#3163E2"/>
<path d="M22.7302 1.55064C24.5117 2.01249 26.0952 3.06816 27.2498 4.48672C27.4808 4.75064 27.8766 4.81662 28.1405 4.58569C28.4045 4.35476 28.4704 3.95888 28.2395 3.69497C26.9199 2.04548 25.0725 0.857854 23.0271 0.297029C19.6622 -0.560703 16.0333 0.428988 13.5921 2.90321C11.0849 5.44342 10.1282 9.30321 11.1838 12.7341C11.2828 12.9981 11.5137 13.196 11.7777 13.196C11.8436 13.196 11.9096 13.196 11.9756 13.163C12.3055 13.064 12.5034 12.7012 12.4045 12.3713C11.4808 9.40218 12.3055 6.03724 14.5158 3.82693C16.6271 1.64961 19.7942 0.791875 22.7302 1.55064Z" fill="#3163E2"/>
<path d="M30.6145 4.51979C30.4166 4.22288 30.0207 4.15691 29.7238 4.35484L19.9918 10.8868L18.3094 6.63113C18.1774 6.30124 17.8145 6.13629 17.4846 6.26825C17.1547 6.4002 16.9898 6.76309 17.1217 7.09299L19.1011 12.0744C19.1671 12.2394 19.332 12.4043 19.497 12.4373C19.563 12.4703 19.6289 12.4703 19.6949 12.4703C19.8269 12.4703 19.9588 12.4373 20.0578 12.3713L30.4496 5.37752C30.7465 5.21258 30.8124 4.8167 30.6145 4.51979Z" fill="#3163E2"/>
</g>
<defs>
<clipPath id="clip0_1_16976">
<rect width="42.0289" height="32" fill="white"/>
</clipPath>
</defs>
</svg>
